<svg xmlns="http://www.w3.org/2000/svg" width="477.3" height="19.475" viewBox="0 0 477.3 19.475">
  <g id="Component_1_1" data-name="Component 1 – 1" transform="translate(0)">
    <g id="Group_12" data-name="Group 12" transform="translate(0 4.945)">
      <g id="Group_10" data-name="Group 10">
        <path id="Path_83" data-name="Path 83" d="M440.916,1126.569a4.276,4.276,0,0,1-2.6-.84,3.6,3.6,0,0,1-1.289-1.764,5.373,5.373,0,0,1-2.55,2.086A6.967,6.967,0,0,1,430.5,1122a10.241,10.241,0,0,1-6.191,4.195,17.092,17.092,0,0,1-4.011.593,16.793,16.793,0,0,1,4.011.6,10.128,10.128,0,0,1,6.191,4.2,7.02,7.02,0,0,1,3.975-4.059,5.462,5.462,0,0,1,2.55,2.1,3.523,3.523,0,0,1,.879-1.419,4.311,4.311,0,0,1,3.034-1.185Z" transform="translate(-420.299 -1122.004)" fill="#623a1d"/>
        <path id="Path_84" data-name="Path 84" d="M444.736,1127.845v1.8H652.052v-1.8Z" transform="translate(-428.445 -1123.951)" fill="#623a1d"/>
      </g>
      <g id="Group_11" data-name="Group 11" transform="translate(253.692)">
        <path id="Path_85" data-name="Path 85" d="M1105.311,1126.569a4.276,4.276,0,0,0,2.6-.84,3.6,3.6,0,0,0,1.288-1.764,5.375,5.375,0,0,0,2.551,2.086,6.968,6.968,0,0,0,3.975-4.047,10.241,10.241,0,0,0,6.191,4.195,17.1,17.1,0,0,0,4.012.593,16.8,16.8,0,0,0-4.012.6,10.128,10.128,0,0,0-6.191,4.2,7.02,7.02,0,0,0-3.975-4.059,5.463,5.463,0,0,0-2.551,2.1,3.516,3.516,0,0,0-.879-1.419,4.311,4.311,0,0,0-3.034-1.185Z" transform="translate(-902.32 -1122.004)" fill="#623a1d"/>
        <path id="Path_86" data-name="Path 86" d="M1008.153,1127.845v1.8H800.838v-1.8Z" transform="translate(-800.838 -1123.951)" fill="#623a1d"/>
      </g>
    </g>
    <g id="Group_13" data-name="Group 13" transform="translate(220.664)">
      <path id="Path_87" data-name="Path 87" d="M779.483,1118.86l-2.792-4.273-2.793,4.273a2.32,2.32,0,0,0,.272,2.872l2.521,2.593,2.521-2.593A2.319,2.319,0,0,0,779.483,1118.86Z" transform="translate(-758.705 -1114.587)" fill="#623a1d"/>
      <path id="Path_88" data-name="Path 88" d="M773.9,1134.658l2.793,4.273,2.792-4.273a2.319,2.319,0,0,0-.271-2.872l-2.521-2.593-2.521,2.593A2.32,2.32,0,0,0,773.9,1134.658Z" transform="translate(-758.705 -1119.456)" fill="#623a1d"/>
      <path id="Path_89" data-name="Path 89" d="M759.216,1121.827l-3.985,4.1-2.069-2.135a.968.968,0,0,0-1.557.145,3.162,3.162,0,0,1,0,5.025h0a.967.967,0,0,0,1.557.146l2.069-2.137,3.985,4.1a2.833,2.833,0,0,0,3.793.268l6.273-4.888-6.273-4.888A2.834,2.834,0,0,0,759.216,1121.827Z" transform="translate(-751.295 -1116.71)" fill="#623a1d"/>
      <path id="Path_90" data-name="Path 90" d="M794.718,1126.447a1.565,1.565,0,0,0,1.1-2.657.968.968,0,0,0-1.557.145l-1.664,2.267-4.254-4.375a2.835,2.835,0,0,0-3.793-.268l-6.272,4.888,6.272,4.888a2.834,2.834,0,0,0,3.793-.268l4.254-4.375,1.664,2.268a.967.967,0,0,0,1.557.146A1.566,1.566,0,0,0,794.718,1126.447Z" transform="translate(-760.289 -1116.71)" fill="#623a1d"/>
    </g>
  </g>
</svg>
