<svg id="Group_2" data-name="Group 2" xmlns="http://www.w3.org/2000/svg" xmlns:xlink="http://www.w3.org/1999/xlink" width="609.575" height="420.857" viewBox="0 0 609.575 420.857">
  <defs>
    <linearGradient id="linear-gradient" x1="0.5" y1="1" x2="0.5" gradientUnits="objectBoundingBox">
      <stop offset="0" stop-color="#f8d559"/>
      <stop offset="0.003" stop-color="#f7d458"/>
      <stop offset="0.212" stop-color="#deaa40"/>
      <stop offset="0.401" stop-color="#cc8c2f"/>
      <stop offset="0.562" stop-color="#c17a24"/>
      <stop offset="0.677" stop-color="#be7421"/>
    </linearGradient>
    <radialGradient id="radial-gradient" cx="-190.664" cy="-953.598" r="2807.705" gradientTransform="translate(-775.668 -1980.395) rotate(180) scale(0.072 0.072)" xlink:href="#linear-gradient"/>
  </defs>
  <g id="Group_6" data-name="Group 6" transform="translate(21.235)">
    <g id="Group_5" data-name="Group 5" transform="translate(10.601)">
      <g id="Group_2-2" data-name="Group 2" transform="translate(0 230.988)">
        <path id="Path_35" data-name="Path 35" d="M553.42,851.413c.031.515.4.775,1.127.775a3.283,3.283,0,0,0,1.677-.512,15.614,15.614,0,0,0-.551,3.489h-1.765a4.7,4.7,0,0,1-3.244-1.014,3.51,3.51,0,0,1-1.125-2.738V836.808a1.653,1.653,0,0,0-.554-1.435,21.761,21.761,0,0,0,2.361.177,15.633,15.633,0,0,0,2.516-.177,1.789,1.789,0,0,0-.443,1.435Z" transform="translate(-548.985 -818.825)" fill="#6d6f72"/>
        <path id="Path_36" data-name="Path 36" d="M590.389,841.462a2.848,2.848,0,0,0-1.158-2.284,5.916,5.916,0,0,0-3.717-.939,10.127,10.127,0,0,0-4.832,1.457v.089a3.641,3.641,0,0,1,2.007.9,4.059,4.059,0,0,1,1.191,1.61,2.666,2.666,0,0,0-1.532.95,2.583,2.583,0,0,0-.805,1.765v8.692a1.794,1.794,0,0,0,.441,1.435,15.859,15.859,0,0,0-2.538-.176,20.608,20.608,0,0,0-2.339.176,1.615,1.615,0,0,0,.529-1.435v-8.692a2.486,2.486,0,0,1,.684-1.645,4.166,4.166,0,0,1,1.632-1.157,2.755,2.755,0,0,0-1.6-1.271,6.083,6.083,0,0,0-2.2-.5v-1.787c.089-.028.613-.359,1.579-.991a21.792,21.792,0,0,1,3.638-1.853,11.283,11.283,0,0,1,4.314-.905,12.336,12.336,0,0,1,4.457.715,5.812,5.812,0,0,1,2.659,1.855,8.256,8.256,0,0,1,1.147,2.051,5.42,5.42,0,0,1,.32,1.776v12.4a1.75,1.75,0,0,0,.462,1.435,15.834,15.834,0,0,0-2.536-.176,21.156,21.156,0,0,0-2.361.176,1.661,1.661,0,0,0,.551-1.435Z" transform="translate(-558.043 -818.67)" fill="#6d6f72"/>
        <path id="Path_37" data-name="Path 37" d="M586.717,825.212a20.427,20.427,0,0,1,4.014.387,25.121,25.121,0,0,1,3.045.759,8.414,8.414,0,0,0,1.258.377v2.843a28.841,28.841,0,0,0-8.317-.991,35.72,35.72,0,0,0-4.359.255,28.734,28.734,0,0,0-2.967.475l-.948.261v-2.843a8.781,8.781,0,0,0,1.211-.377,24.313,24.313,0,0,1,3.015-.759A20.486,20.486,0,0,1,586.717,825.212Z" transform="translate(-558.804 -815.438)" fill="#6d6f72"/>
        <path id="Path_38" data-name="Path 38" d="M628.071,855.076h-1.566a2.669,2.669,0,0,1-.342-.3,10.292,10.292,0,0,1-.771-.995,9.658,9.658,0,0,1-.993-1.753,13.247,13.247,0,0,1-.771-2.69,18.987,18.987,0,0,1-.341-3.709A10.873,10.873,0,0,1,626,837.844a9.064,9.064,0,0,1,6.884-2.869,9.365,9.365,0,0,1,6.826,2.5,8.269,8.269,0,0,1,2.571,6.166v10.084a1.8,1.8,0,0,0,.442,1.435,15.842,15.842,0,0,0-2.537-.176,20.607,20.607,0,0,0-2.34.176,1.6,1.6,0,0,0,.53-1.435V843.645a5.136,5.136,0,0,0-1.445-3.937,5.684,5.684,0,0,0-4.047-1.357,5.3,5.3,0,0,0-4.138,1.721q-1.557,1.72-1.557,5.561a19.64,19.64,0,0,0,.882,6.288,7.081,7.081,0,0,0,2.307-2.56,5.465,5.465,0,0,0,.607-3.728q-.178-.817-.418-.948h4.479a7.124,7.124,0,0,1,.132,1.345,9.124,9.124,0,0,1-2.583,6.145Q630.016,855.075,628.071,855.076Z" transform="translate(-573.752 -818.692)" fill="#6d6f72"/>
        <path id="Path_39" data-name="Path 39" d="M686.772,835.539a6.646,6.646,0,0,1,2.271,5.338v11.76a1.794,1.794,0,0,0,.443,1.435,15.665,15.665,0,0,0-2.515-.176,21.17,21.17,0,0,0-2.359.176,1.662,1.662,0,0,0,.55-1.435v-3.131a4.317,4.317,0,0,0-1.447-3.455A5.477,5.477,0,0,0,680,844.8a5.1,5.1,0,0,0-3.153.885,3.01,3.01,0,0,0-1.171,2.56,2.679,2.679,0,0,0,.806,2.171,2.475,2.475,0,0,0,1.579.671,3.575,3.575,0,0,0,1.213-.263h.418a12.461,12.461,0,0,0-.307,3.244h-1.591a5.6,5.6,0,0,1-6.021-5.958,6.213,6.213,0,0,1,2.04-4.832,8.1,8.1,0,0,1,5.658-1.853,8.3,8.3,0,0,1,3.763.781,4.323,4.323,0,0,1,1.93,1.513v-2.847q0-3.793-4.835-3.793a7.872,7.872,0,0,0-3.8.773,5.092,5.092,0,0,0-1.953,1.672h-.617v-4.081a12.769,12.769,0,0,1,6.552-1.764,13.721,13.721,0,0,1,2.847.287,2.34,2.34,0,0,0,1.49-.494,1.694,1.694,0,0,0,.628-1.4h2.889a3.248,3.248,0,0,0,.763-.087,4.541,4.541,0,0,0,.549-.167c.125-.051.187-.093.187-.122v.42Q689.837,834.368,686.772,835.539Z" transform="translate(-589.914 -817.6)" fill="#6d6f72"/>
        <path id="Path_40" data-name="Path 40" d="M724.269,841.142a8.944,8.944,0,0,0-.09-1.423,4.922,4.922,0,0,0-.408-1.212,2.074,2.074,0,0,0-1.113-1.037,5.239,5.239,0,0,0-2.053-.345,6.165,6.165,0,0,0-4.059,1.259h-.463v-3.11a13.039,13.039,0,0,1,4.522-.861,11.6,11.6,0,0,1,2.848.319,9.665,9.665,0,0,1,2.029.727,4.225,4.225,0,0,1,1.332,1.127,7.816,7.816,0,0,1,.818,1.213,4.5,4.5,0,0,1,.385,1.334,8.9,8.9,0,0,1,.133,1.116v13.427a1.744,1.744,0,0,0,.463,1.432,15.985,15.985,0,0,0-2.535-.175,21.392,21.392,0,0,0-2.361.175,1.652,1.652,0,0,0,.553-1.432Z" transform="translate(-604.684 -818.505)" fill="#6d6f72"/>
        <path id="Path_41" data-name="Path 41" d="M771.043,849.141a6.109,6.109,0,0,1-1.965,4.445q-1.963,1.955-6.442,1.954a12.684,12.684,0,0,1-3.7-.5,7.714,7.714,0,0,1-2.526-1.214,6.585,6.585,0,0,1-2.217-3.319,5.83,5.83,0,0,1-.188-1.435,4.467,4.467,0,0,1,.815-2.549,3.683,3.683,0,0,1,2.121-1.555h.042a4.056,4.056,0,0,1-2.137-1.557,4.424,4.424,0,0,1-.84-2.681,4.656,4.656,0,0,1,1.611-3.64,5.66,5.66,0,0,1,3.906-1.432h1.984a8.515,8.515,0,0,0-.4,3.222c-2.13,0-3.209.688-3.221,2.073q0,2.25,3.619,2.251a8.174,8.174,0,0,0-.4,3.134c-2.13,0-3.209.852-3.221,2.559a2.537,2.537,0,0,0,1.248,2.182,6.2,6.2,0,0,0,3.5.839,5.686,5.686,0,0,0,3.321-.85,2.754,2.754,0,0,0,1.2-2.393V836.895a1.749,1.749,0,0,0-.527-1.455,21.952,21.952,0,0,0,2.335.176,16.254,16.254,0,0,0,2.541-.176,1.862,1.862,0,0,0-.462,1.455Z" transform="translate(-617.326 -818.847)" fill="#6d6f72"/>
        <path id="Path_42" data-name="Path 42" d="M805.525,839.367v.087a17.408,17.408,0,0,1,8.692,2.846,7.389,7.389,0,0,1,3.684,6.288v.815a5.471,5.471,0,0,1-1.941,4.2q-1.939,1.754-6.443,1.756h-.241q-4.527,0-6.463-1.756a5.461,5.461,0,0,1-1.943-4.2l-.046-4.876a5.616,5.616,0,0,0,2.231.311h2.206v.309a2.108,2.108,0,0,0-.486,1.721V849.4a2.183,2.183,0,0,0,1.148,1.811,6,6,0,0,0,3.353.773h.241a6.01,6.01,0,0,0,3.353-.773,2.189,2.189,0,0,0,1.148-1.811v-.815a4.194,4.194,0,0,0-.949-2.714,7.327,7.327,0,0,0-2.779-1.983,24.458,24.458,0,0,0-3.951-1.359,45.749,45.749,0,0,0-5-.939l-.6-1.455c.031-.028.273-.316.731-.862a12.458,12.458,0,0,1,1.356-1.4c.449-.391,1.035-.84,1.753-1.347a8.6,8.6,0,0,1,2.516-1.192,10.538,10.538,0,0,1,3.043-.43,13.775,13.775,0,0,1,3.619.453,9.817,9.817,0,0,1,2.408.9l.705.4v2.8h-.705c-1.21-.837-3.213-1.259-6.027-1.259a9.12,9.12,0,0,0-2.312.3,10.042,10.042,0,0,0-1.7.564Z" transform="translate(-632.901 -818.67)" fill="#6d6f72"/>
        <path id="Path_43" data-name="Path 43" d="M852.406,841.142a9.019,9.019,0,0,0-.087-1.423,5.07,5.07,0,0,0-.4-1.212,2.077,2.077,0,0,0-1.118-1.037,5.218,5.218,0,0,0-2.053-.345,6.166,6.166,0,0,0-4.057,1.259h-.467v-3.11a13.075,13.075,0,0,1,4.524-.861,11.583,11.583,0,0,1,2.847.319,9.6,9.6,0,0,1,2.03.727,4.272,4.272,0,0,1,1.337,1.127,8.042,8.042,0,0,1,.814,1.213,4.663,4.663,0,0,1,.388,1.334,9.259,9.259,0,0,1,.13,1.116v13.427a1.741,1.741,0,0,0,.465,1.432,15.986,15.986,0,0,0-2.537-.175,21.468,21.468,0,0,0-2.361.175,1.644,1.644,0,0,0,.549-1.432Z" transform="translate(-647.397 -818.505)" fill="#6d6f72"/>
        <path id="Path_44" data-name="Path 44" d="M885.383,839.367v.087a17.4,17.4,0,0,1,8.693,2.846,7.383,7.383,0,0,1,3.682,6.288v.377a6.458,6.458,0,0,1-1.775,4.4q-1.775,2-5.393,2a7.912,7.912,0,0,1-4.435-1.215q1.722-1.808,1.719-2.667h.531a2.978,2.978,0,0,0,2.185.771,3.091,3.091,0,0,0,2.436-.951,3.356,3.356,0,0,0,.851-2.337v-.377a4.179,4.179,0,0,0-.948-2.714,7.328,7.328,0,0,0-2.781-1.983,24.467,24.467,0,0,0-3.951-1.359,45.742,45.742,0,0,0-5.006-.939l-.6-1.455c.031-.028.27-.316.729-.862a12.217,12.217,0,0,1,1.353-1.4q.675-.587,1.755-1.347a8.586,8.586,0,0,1,2.506-1.192,10.5,10.5,0,0,1,3.055-.43,13.765,13.765,0,0,1,3.618.453,9.767,9.767,0,0,1,2.405.9l.707.4v2.8h-.707q-1.808-1.256-6.023-1.259a9.256,9.256,0,0,0-2.326.3,11.021,11.021,0,0,0-1.735.564Z" transform="translate(-659.522 -818.67)" fill="#6d6f72"/>
        <path id="Path_45" data-name="Path 45" d="M938.382,841.462a2.846,2.846,0,0,0-1.158-2.284,5.923,5.923,0,0,0-3.718-.939,10.134,10.134,0,0,0-4.835,1.457v.089a3.659,3.659,0,0,1,2.011.9,4.1,4.1,0,0,1,1.193,1.61,2.674,2.674,0,0,0-1.535.95,2.575,2.575,0,0,0-.8,1.765v8.692a1.794,1.794,0,0,0,.44,1.435,15.868,15.868,0,0,0-2.537-.176,20.677,20.677,0,0,0-2.343.176,1.6,1.6,0,0,0,.532-1.435v-8.692a2.468,2.468,0,0,1,.685-1.645,4.166,4.166,0,0,1,1.632-1.157,2.757,2.757,0,0,0-1.6-1.271,6.083,6.083,0,0,0-2.191-.5v-1.787q.132-.042,1.575-.991a21.769,21.769,0,0,1,3.644-1.853,11.245,11.245,0,0,1,4.309-.905,12.346,12.346,0,0,1,4.459.715,5.814,5.814,0,0,1,2.658,1.855,8.382,8.382,0,0,1,1.149,2.051,5.417,5.417,0,0,1,.318,1.776v12.4a1.746,1.746,0,0,0,.462,1.435,15.8,15.8,0,0,0-2.535-.176,21.124,21.124,0,0,0-2.361.176,1.663,1.663,0,0,0,.551-1.435Z" transform="translate(-674.041 -818.67)" fill="#6d6f72"/>
        <path id="Path_46" data-name="Path 46" d="M977.908,841.142a9.038,9.038,0,0,0-.089-1.423,4.811,4.811,0,0,0-.408-1.212,2.049,2.049,0,0,0-1.111-1.037,5.231,5.231,0,0,0-2.053-.345,6.2,6.2,0,0,0-4.063,1.259h-.461v-3.11a13.04,13.04,0,0,1,4.523-.861,11.586,11.586,0,0,1,2.845.319,9.6,9.6,0,0,1,2.029.727,4.279,4.279,0,0,1,1.337,1.127,8,8,0,0,1,.815,1.213,4.463,4.463,0,0,1,.385,1.334,9.305,9.305,0,0,1,.131,1.116v13.427a1.752,1.752,0,0,0,.465,1.432,15.991,15.991,0,0,0-2.535-.175,21.349,21.349,0,0,0-2.359.175,1.658,1.658,0,0,0,.55-1.432Z" transform="translate(-689.231 -818.505)" fill="#6d6f72"/>
        <path id="Path_47" data-name="Path 47" d="M1010.876,839.367v.087a17.383,17.383,0,0,1,8.695,2.846,7.391,7.391,0,0,1,3.685,6.288v.377a6.466,6.466,0,0,1-1.776,4.4q-1.775,2-5.4,2a7.892,7.892,0,0,1-4.433-1.215c1.149-1.205,1.719-2.1,1.719-2.667h.531a2.965,2.965,0,0,0,2.183.771,3.111,3.111,0,0,0,2.441-.951,3.376,3.376,0,0,0,.845-2.337v-.377a4.167,4.167,0,0,0-.951-2.714,7.276,7.276,0,0,0-2.776-1.983,24.427,24.427,0,0,0-3.949-1.359,45.773,45.773,0,0,0-5.009-.939l-.6-1.455c.032-.028.273-.316.731-.862a12.634,12.634,0,0,1,1.357-1.4,20.674,20.674,0,0,1,1.751-1.347,8.565,8.565,0,0,1,2.505-1.192,10.5,10.5,0,0,1,3.058-.43,13.74,13.74,0,0,1,3.615.453,9.817,9.817,0,0,1,2.406.9l.707.4v2.8h-.707q-1.811-1.256-6.021-1.259a9.278,9.278,0,0,0-2.331.3,11.068,11.068,0,0,0-1.732.564Z" transform="translate(-701.353 -818.67)" fill="#6d6f72"/>
        <path id="Path_48" data-name="Path 48" d="M1050.88,827.893a6.441,6.441,0,0,1,1.808-3.783q1.809-2.2,1.811-3.5a1.364,1.364,0,0,0-.455-1.079,1.818,1.818,0,0,0-2.27,0,1.372,1.372,0,0,0-.454,1.079,2.341,2.341,0,0,0,.419,1.635h-3.8a4.233,4.233,0,0,1-.42-1.635,4.1,4.1,0,0,1,1.586-3.233,6.077,6.077,0,0,1,7.592,0,4.081,4.081,0,0,1,1.589,3.233,5.191,5.191,0,0,1-.883,2.837,29.644,29.644,0,0,1-1.763,2.481,3.306,3.306,0,0,0-.883,1.963v17.078c.027.515.406.775,1.127.775a3.283,3.283,0,0,0,1.676-.512,15.712,15.712,0,0,0-.553,3.489h-1.743a4.736,4.736,0,0,1-3.254-1.014,3.5,3.5,0,0,1-1.135-2.738Z" transform="translate(-715.165 -812.383)" fill="#6d6f72"/>
        <path id="Path_49" data-name="Path 49" d="M1092.932,846.945a3.8,3.8,0,0,0-.75-2.649,3.64,3.64,0,0,0-2.692-.791,7.377,7.377,0,0,0-3.671.947,2.7,2.7,0,0,0-1.688,2.273v6.641a1.8,1.8,0,0,0,.439,1.433,16.176,16.176,0,0,0-2.537-.174,21.3,21.3,0,0,0-2.341.174,1.591,1.591,0,0,0,.529-1.433v-15.2a3.1,3.1,0,0,0-1.12-2.6l.133-.55a13.244,13.244,0,0,0,2.361.177,8.464,8.464,0,0,0,2.536-.309v7.28a8.543,8.543,0,0,1,2.568-1.411,25.237,25.237,0,0,0,3.838-2.008c1.142-.737,1.717-1.508,1.717-2.316a2.019,2.019,0,0,0-.093-.631,1.021,1.021,0,0,0-.177-.363l-.083-.155v-.043a8.547,8.547,0,0,0,2.435-.353,6.208,6.208,0,0,0,1.709-.729l.507-.4v2.031a4.623,4.623,0,0,1-1.136,3.01,6.579,6.579,0,0,1-3.561,2v.131a5.023,5.023,0,0,1,3.722,1.809,5.9,5.9,0,0,1,1.237,3.752v6.883a1.785,1.785,0,0,0,.445,1.433,16.022,16.022,0,0,0-2.516-.174,21.752,21.752,0,0,0-2.361.174,1.651,1.651,0,0,0,.55-1.433Z" transform="translate(-725.69 -818.284)" fill="#6d6f72"/>
        <path id="Path_50" data-name="Path 50" d="M1094.808,823.977h3.178a15.076,15.076,0,0,0,4.833-.729v1.941a6.6,6.6,0,0,1-2.472,1.411,10.353,10.353,0,0,1-3.77.729q-4.262,0-5.233-1.589a2.491,2.491,0,0,0,.519-.473,2.967,2.967,0,0,0,.258-.343l.084-.131a1.31,1.31,0,0,0,.176-.52.866.866,0,0,0-.084-.539.531.531,0,0,0-.506-.244,2.913,2.913,0,0,0-1.306.265,11.494,11.494,0,0,0,.353-3.31h1.9a2.255,2.255,0,0,1,2.108.951,2.125,2.125,0,0,1-.037,2.139Z" transform="translate(-729.485 -813.849)" fill="#6d6f72"/>
        <path id="Path_51" data-name="Path 51" d="M1126.492,838.726a3.121,3.121,0,0,0-1.126-2.6l.129-.55a13.291,13.291,0,0,0,2.364.177,8.489,8.489,0,0,0,2.539-.309v2.713q3.194-2.667,6-2.67a6.117,6.117,0,0,1,5.019,1.965,7.177,7.177,0,0,1,1.7,4.811v11.626a1.752,1.752,0,0,0,.464,1.435,15.8,15.8,0,0,0-2.537-.176,21.273,21.273,0,0,0-2.362.176,1.662,1.662,0,0,0,.556-1.435v-11.45a3.8,3.8,0,0,0-.91-2.616,2.986,2.986,0,0,0-2.357-1.025,5.858,5.858,0,0,0-3.851,1.444,3.954,3.954,0,0,0-1.73,2.88v10.767a1.784,1.784,0,0,0,.439,1.435,15.819,15.819,0,0,0-2.535-.176,20.576,20.576,0,0,0-2.339.176,1.621,1.621,0,0,0,.529-1.435Z" transform="translate(-741.112 -818.847)" fill="#6d6f72"/>
        <path id="Path_52" data-name="Path 52" d="M1140.576,820.943h3.13v7.212a28.827,28.827,0,0,0-8.316-.991,35.843,35.843,0,0,0-4.36.255,28.882,28.882,0,0,0-2.964.475l-.949.261v-2.843a8.875,8.875,0,0,0,1.218-.377,23.886,23.886,0,0,1,3.008-.759,20.52,20.52,0,0,1,4.047-.387,22.413,22.413,0,0,1,5.008.574Z" transform="translate(-741.696 -814.015)" fill="#6d6f72"/>
        <path id="Path_53" data-name="Path 53" d="M1147.413,810.551h3.137v5.161h-3.443Z" transform="translate(-748.359 -810.551)" fill="#6d6f72"/>
        <path id="Path_54" data-name="Path 54" d="M1183.065,835.043a7.814,7.814,0,0,1,3.139,3.519,13.6,13.6,0,0,1,1.367,6.363q0,5.054-2.527,7.615a9.021,9.021,0,0,1-6.721,2.559h-3.573l-3.019-8.54a6.5,6.5,0,0,0-.565-1.245,3.726,3.726,0,0,0-.434-.607l-.2-.091h5.12v.4a.291.291,0,0,0-.067.143c-.014.065-.034.2-.067.407a1.9,1.9,0,0,0,.091.773l1.9,5.362h.859a5.024,5.024,0,0,0,3.76-1.621q1.559-1.624,1.558-5.154a10.761,10.761,0,0,0-1.778-6.275c-1.185-1.714-2.391-2.573-3.631-2.573v-.507A13.571,13.571,0,0,0,1183.065,835.043Z" transform="translate(-756.168 -818.715)" fill="#6d6f72"/>
        <path id="Path_55" data-name="Path 55" d="M1219.538,855.076h-1.566a2.5,2.5,0,0,1-.341-.3,10.187,10.187,0,0,1-.771-.995,9.656,9.656,0,0,1-.991-1.753,13.1,13.1,0,0,1-.774-2.69,19.142,19.142,0,0,1-.344-3.709,10.873,10.873,0,0,1,2.715-7.789,9.075,9.075,0,0,1,6.886-2.869,9.386,9.386,0,0,1,6.83,2.5,8.276,8.276,0,0,1,2.567,6.166v10.084a1.791,1.791,0,0,0,.443,1.435,15.885,15.885,0,0,0-2.539-.176,20.515,20.515,0,0,0-2.337.176,1.619,1.619,0,0,0,.526-1.435V843.645a5.148,5.148,0,0,0-1.443-3.937,5.681,5.681,0,0,0-4.047-1.357,5.289,5.289,0,0,0-4.135,1.721q-1.563,1.72-1.557,5.561a19.536,19.536,0,0,0,.879,6.288,7.072,7.072,0,0,0,2.308-2.56,5.466,5.466,0,0,0,.607-3.728c-.117-.545-.26-.861-.419-.948h4.475a6.669,6.669,0,0,1,.137,1.345,9.144,9.144,0,0,1-2.585,6.145Q1221.482,855.075,1219.538,855.076Z" transform="translate(-770.907 -818.692)" fill="#6d6f72"/>
        <path id="Path_56" data-name="Path 56" d="M1274.276,835.043a7.806,7.806,0,0,1,3.139,3.519,13.579,13.579,0,0,1,1.367,6.363q0,5.054-2.528,7.615a9.014,9.014,0,0,1-6.718,2.559h-3.575l-3.019-8.54a6.184,6.184,0,0,0-.565-1.245,4.088,4.088,0,0,0-.429-.607l-.2-.091h5.119v.4a.285.285,0,0,0-.067.143c-.015.065-.038.2-.069.407a1.9,1.9,0,0,0,.092.773l1.893,5.362h.862a5.032,5.032,0,0,0,3.765-1.621q1.558-1.624,1.555-5.154a10.756,10.756,0,0,0-1.778-6.275q-1.77-2.571-3.624-2.573v-.507A13.553,13.553,0,0,0,1274.276,835.043Z" transform="translate(-786.573 -818.715)" fill="#6d6f72"/>
        <path id="Path_57" data-name="Path 57" d="M1312.6,841.142a8.935,8.935,0,0,0-.09-1.423,5.192,5.192,0,0,0-.409-1.212,2.091,2.091,0,0,0-1.111-1.037,5.256,5.256,0,0,0-2.055-.345,6.174,6.174,0,0,0-4.059,1.259h-.463v-3.11a13.041,13.041,0,0,1,4.522-.861,11.618,11.618,0,0,1,2.849.319,9.612,9.612,0,0,1,2.023.727,4.142,4.142,0,0,1,1.335,1.127,8.278,8.278,0,0,1,.823,1.213,4.365,4.365,0,0,1,.377,1.334,8.334,8.334,0,0,1,.137,1.116v13.427a1.753,1.753,0,0,0,.459,1.432,15.917,15.917,0,0,0-2.532-.175,21.394,21.394,0,0,0-2.36.175,1.659,1.659,0,0,0,.553-1.432Z" transform="translate(-800.793 -818.505)" fill="#6d6f72"/>
        <path id="Path_58" data-name="Path 58" d="M1359.968,836.895v11.517a7.436,7.436,0,0,1-1.6,4.967,6.07,6.07,0,0,1-4.911,1.9,10.5,10.5,0,0,1-6.221-2.493v.9q0,1.592-2.4,1.59a8.562,8.562,0,0,0-2.489.265l-.137-.618a3.43,3.43,0,0,0,1.127-2.847v-2.714a1.273,1.273,0,0,0-.354-.652,3.788,3.788,0,0,0-.686-.671,4.414,4.414,0,0,0,1.04-2.715v-6.6a3.109,3.109,0,0,0-1.127-2.6l.137-.55a13.167,13.167,0,0,0,2.358.177,8.425,8.425,0,0,0,2.535-.309v12.375a8.3,8.3,0,0,0,2.441,2.8,5.339,5.339,0,0,0,3.2,1.167,3.113,3.113,0,0,0,2.354-.881,3.471,3.471,0,0,0,.851-2.5V836.895a1.709,1.709,0,0,0-.555-1.455,22.018,22.018,0,0,0,2.365.176,16.226,16.226,0,0,0,2.535-.176A1.8,1.8,0,0,0,1359.968,836.895Z" transform="translate(-813.391 -818.847)" fill="#6d6f72"/>
      </g>
      <g id="Group_4" data-name="Group 4">
        <path id="Path_59" data-name="Path 59" d="M572.305,624.615V547.828q0-5.678,2.314-7.536a81.481,81.481,0,0,1-13.217.927,112.51,112.51,0,0,1-12.417-.927q2.9,2.086,2.9,7.536v76.787q0,9.05,5.913,14.383t17.055,5.335h9.279q.805-11.717,2.9-18.327a17.283,17.283,0,0,1-8.817,2.669Q572.532,628.674,572.305,624.615Z" transform="translate(-548.985 -489.477)" fill="url(#linear-gradient)"/>
        <path id="Path_60" data-name="Path 60" d="M684.5,503.5q4.528,4.531,13.107,4.525h17.517V490.513h-3.829a3.26,3.26,0,0,1-.928,2.2,2.964,2.964,0,0,1-2.319,1.046h-10.67q-4.293.113-4.291-3.481v-1.74H676.955v1.74q0,3.476-4.986,3.481h-8.347q0-6.38,2.029-8.758t7.944-2.379h30.622q10.91,0,10.9-9.278v-9.278h-3.246q-.114,4.291-7.195,4.291H673.6q-30.384,0-30.392,28.535v11.133h29.233A16.78,16.78,0,0,0,684.5,503.5Zm420.062,58.017v0c4.152-7.487,11.324-17.467,17.557-22.472a.037.037,0,0,0,.017-.019c-6.23-5-13.418-14.993-17.575-22.489v0c-4.159,7.5-11.339,17.491-17.573,22.487.005.008.005.015.017.019C1093.234,544.057,1100.405,554.036,1104.559,561.52Zm0,11h0c-4.159,7.5-11.339,17.491-17.573,22.488.005.005.005.014.017.021,6.23,5,13.4,14.981,17.555,22.466v0c4.152-7.488,11.324-17.467,17.557-22.469a.085.085,0,0,0,.017-.021C1115.9,590.008,1108.716,580.012,1104.559,572.516Zm-410.9-57.4q2.786,2.205,2.785,7.652v61.937a14.513,14.513,0,0,1-6.317,12.587q-6.327,4.465-17.455,4.467-11.833,0-18.391-4.407t-6.549-11.487q.113-13.449,16.935-13.449,0-12.18,2.085-16.473-19.021,0-19.02-11.831.113-10.905,16.935-10.9,0-12.643,2.085-16.935H656.319a29.78,29.78,0,0,0-20.529,7.539,24.493,24.493,0,0,0-8.47,19.14,23.406,23.406,0,0,0,4.4,14.091,21.329,21.329,0,0,0,11.255,8.18h-.235a19.288,19.288,0,0,0-11.133,8.171,23.471,23.471,0,0,0-4.291,13.4,31.189,31.189,0,0,0,.982,7.537,34.668,34.668,0,0,0,11.659,17.459q4.76,3.768,13.285,6.376a66.2,66.2,0,0,0,19.427,2.613q23.545,0,33.865-10.265t10.324-23.377V522.768q.119-5.8,2.437-7.652a83.8,83.8,0,0,1-13.341.927A112.136,112.136,0,0,1,693.659,515.116ZM833.914,588.3q0-1.16,1.915-3.481a19.633,19.633,0,0,1,3.536-3.479l-1.158-2.087a24.573,24.573,0,0,1-2.841-5.455,18.049,18.049,0,0,1-1.452-6.725v-44.31q.119-5.8,2.441-7.652a83.867,83.867,0,0,1-13.344.927,112.68,112.68,0,0,1-12.412-.927q2.906,2.205,2.9,7.652v57.416a43.484,43.484,0,0,1-12.818,14.734q-8.289,6.141-16.875,6.144-7.884,0-12.351-4.579t-4.47-13.165v-68.2a44.394,44.394,0,0,1-13.34,1.623,69.233,69.233,0,0,1-12.4-.927l-.7,2.9q5.906,4.644,5.913,13.693v50.918q0,16.12,8.408,26.093t25.812,9.977q15.422,0,32.821-13.107v4.757q-.121,8.35,12.529,8.35,8.81,0,13.105,1.394l.692-3.249q-5.911-4.754-5.913-14.964Zm215.669-36.193q-19.355-13.1-45.7-14.963v-.46l2.9-1.626a57.293,57.293,0,0,1,9.108-2.959,49.054,49.054,0,0,1,12.231-1.567q22.157,0,31.671,6.611h3.709V522.42l-3.709-2.088q-3.826-2.314-12.643-4.7a72.892,72.892,0,0,0-19.028-2.377,55.076,55.076,0,0,0-16.064,2.263,45.672,45.672,0,0,0-13.166,6.259q-5.684,4-9.217,7.077a65.294,65.294,0,0,0-7.131,7.364q-3.6,4.295-3.831,4.525l3.13,7.653a240.31,240.31,0,0,1,26.332,4.933,129.364,129.364,0,0,1,20.758,7.134q9.628,4.288,14.618,10.436a21.993,21.993,0,0,1,4.989,14.267v1.969a17.792,17.792,0,0,1-4.467,12.3q-4.465,4.988-12.815,4.987-7.426,0-11.481-4.059h-2.789q0,4.518-9.042,14.033,9.747,6.383,23.313,6.382,19.023,0,28.359-10.5t9.337-23.141v-1.969Q1068.961,565.221,1049.583,552.112ZM877.4,487.092a78.557,78.557,0,0,1,9.16-2.9,88.677,88.677,0,0,1,9.271-1.8,94.973,94.973,0,0,1,20.437-.54c.405.03.8.092,1.211.129a82.166,82.166,0,0,1,26.072,5.99c1.149.465,2.275.95,3.4,1.442,18.8,8.235,36.963,16.733,57.675,3.647,7.256-4.577,13.037-10.758,16.193-17.738.173-.382.323-.759.487-1.133.177-.416.333-.846.483-1.275-4.045,6.413-12.279,10.673-20.5,12.339a42.654,42.654,0,0,1-4.259.615c-8.581.832-16.986-.892-24.439-3.505-8.089-2.826-15.356-6.744-23.055-10.123-1.129-.491-2.249-.975-3.4-1.441a82.091,82.091,0,0,0-26.068-5.99c-.412-.04-.808-.1-1.236-.129a95.274,95.274,0,0,0-20.422.535s-39.127,7.9-49.895,42.524c.181-.221.355-.447.532-.666a67.83,67.83,0,0,1,12.589-11.549A71.1,71.1,0,0,1,877.4,487.092Zm84.013,15.553a18.132,18.132,0,0,1-2.841.87,17.066,17.066,0,0,1-4,.462h-15.2a8.574,8.574,0,0,1-3.589,7.365,15.03,15.03,0,0,1-9.051,2.612q-1.388,0-7.015-.116t-7.947-.118q-22.036,0-35.145,12.645a40.825,40.825,0,0,0-13.1,30.5V614.63a5.044,5.044,0,0,1-.932,2.961,3.5,3.5,0,0,1-1.855,1.565h17.748q5.57,0,5.567-5.218v-4.059q0-14.032,8.233-21.172t20.88-7.132q6.728.116,9.047,2.436h2.666V564.988a51.407,51.407,0,0,0-23.544,1.219,34.365,34.365,0,0,0-17.283,11.2V556.868q-.115-25.4,27.721-25.4,13.805,0,20.823,6.666t7.018,18.73v51.487a108.508,108.508,0,0,1,20.414-3.157v-48.33q0-21.335-17.171-33.634a32.811,32.811,0,0,0,14.035-7.657q5.446-5.222,5.45-11.363v-2.2C962.339,502.16,962.035,502.376,961.413,502.646Z" transform="translate(-575.097 -464.069)" fill="url(#linear-gradient)"/>
        <g id="Group_3" data-name="Group 3" transform="translate(0.005 149.251)">
          <path id="Path_61" data-name="Path 61" d="M559.053,739.689V706.56c0-1.631.33-2.719,1-3.25a35.287,35.287,0,0,1-5.7.4,48.6,48.6,0,0,1-5.357-.4,3.76,3.76,0,0,1,1.248,3.25v33.129A7.938,7.938,0,0,0,552.8,745.9q2.554,2.3,7.357,2.3h4a35.624,35.624,0,0,1,1.25-7.905,7.43,7.43,0,0,1-3.8,1.152Q559.145,741.444,559.053,739.689Zm61.161-35.979a4.535,4.535,0,0,1,.7,3.509L611.3,735.484,601.149,704.01h-4.509a25.992,25.992,0,0,1-5.85-.8,9.931,9.931,0,0,1,2.249,3.8l2.05,5.708-7.553,22.766-10.66-32.476a31.305,31.305,0,0,1-6.257,1,27.077,27.077,0,0,1-5-.6v1.249a12.35,12.35,0,0,1,4.9,6.207l11.762,35.475a14.921,14.921,0,0,1,4.251,1.127,13.081,13.081,0,0,1,4.155,2.48l8.609-27.173,8.1,23.871a8.8,8.8,0,0,1,3.952.875,11.124,11.124,0,0,1,4.251,2.628l15.165-46.042h-5.2A46.026,46.026,0,0,1,620.214,703.71Zm43.746,15.665a39.488,39.488,0,0,0-19.716-6.459v-.2l1.249-.7a24.392,24.392,0,0,1,3.933-1.277,21.069,21.069,0,0,1,5.277-.675q9.559,0,13.66,2.85h1.6V706.56l-1.6-.894a22.427,22.427,0,0,0-5.455-2.029,31.271,31.271,0,0,0-8.2-1.027,23.727,23.727,0,0,0-6.932.977,19.723,19.723,0,0,0-5.683,2.7q-2.448,1.727-3.975,3.052a28.319,28.319,0,0,0-3.079,3.181c-1.029,1.237-1.584,1.884-1.651,1.953l1.352,3.3a103.216,103.216,0,0,1,11.357,2.129,55.482,55.482,0,0,1,8.958,3.077,16.7,16.7,0,0,1,6.31,4.5,9.5,9.5,0,0,1,2.15,6.161v.847a7.648,7.648,0,0,1-1.93,5.305,7.024,7.024,0,0,1-5.525,2.155A6.7,6.7,0,0,1,651.1,740.2h-1.2q0,1.949-3.9,6.051A17.93,17.93,0,0,0,656.055,749q8.2,0,12.232-4.529a14.676,14.676,0,0,0,4.029-9.982v-.847Q672.316,725.028,663.96,719.374Zm41.946-4.277a20.84,20.84,0,0,0-.3-2.53,10.414,10.414,0,0,0-.877-3.031,18.341,18.341,0,0,0-1.846-2.749,9.506,9.506,0,0,0-3.03-2.549,21.19,21.19,0,0,0-4.6-1.654,26.312,26.312,0,0,0-6.459-.724,29.6,29.6,0,0,0-10.255,1.951v7.056h1.051q3.448-2.857,9.2-2.853a11.9,11.9,0,0,1,4.657.775,4.646,4.646,0,0,1,2.523,2.35,11.2,11.2,0,0,1,.927,2.754,20.218,20.218,0,0,1,.2,3.226v28.427a3.751,3.751,0,0,1-1.249,3.251,49.207,49.207,0,0,1,5.35-.4,36.536,36.536,0,0,1,5.757.4q-1.049-.8-1.049-3.251Zm21.351-4.007a15.218,15.218,0,0,1-3.727.524c-2.538,0-4.217-.551-5.049-1.648h-1.307v8.509l4.507.6a13.2,13.2,0,0,0,5.476-1.179,17.243,17.243,0,0,0,3.457-1.849,8.667,8.667,0,0,0,1.228-1.171v-5.211l-1.255.5Q729.335,710.567,727.257,711.09Zm0,26.651a16.019,16.019,0,0,1-3.727.5c-2.538,0-4.217-.585-5.049-1.754h-1.307V744.9l.6.249a15.174,15.174,0,0,0,3.9.6,13.327,13.327,0,0,0,5.476-1.175,18.016,18.016,0,0,0,3.457-1.855,8.371,8.371,0,0,0,1.228-1.175v-5.254l-1.255.55Q729.335,737.237,727.257,737.742Zm61.089-34.032a4.556,4.556,0,0,1,.7,3.509l-9.607,28.266L769.279,704.01h-4.505a25.994,25.994,0,0,1-5.853-.8,9.922,9.922,0,0,1,2.249,3.8l2.052,5.708-7.554,22.766-10.659-32.476a31.375,31.375,0,0,1-6.259,1,27.092,27.092,0,0,1-5-.6v1.249a12.372,12.372,0,0,1,4.907,6.207l11.756,35.475a14.906,14.906,0,0,1,4.255,1.127,13.007,13.007,0,0,1,4.153,2.48l8.608-27.173,8.107,23.871a8.814,8.814,0,0,1,3.954.875,11.148,11.148,0,0,1,4.252,2.628L798.9,704.109h-5.2A46.012,46.012,0,0,1,788.346,703.71Zm43.743,15.665a39.473,39.473,0,0,0-19.71-6.459v-.2l1.246-.7a24.418,24.418,0,0,1,3.933-1.277,21.09,21.09,0,0,1,5.278-.675q9.559,0,13.659,2.85h1.6V706.56l-1.6-.894a22.474,22.474,0,0,0-5.455-2.029,31.263,31.263,0,0,0-8.2-1.027,23.735,23.735,0,0,0-6.933.977,19.744,19.744,0,0,0-5.682,2.7q-2.452,1.727-3.978,3.052a28.671,28.671,0,0,0-3.077,3.181c-1.031,1.237-1.584,1.884-1.649,1.953l1.351,3.3a103.3,103.3,0,0,1,11.359,2.129,55.526,55.526,0,0,1,8.956,3.077,16.679,16.679,0,0,1,6.305,4.5,9.469,9.469,0,0,1,2.149,6.161v.847a7.663,7.663,0,0,1-1.922,5.305,7.033,7.033,0,0,1-5.531,2.155,6.7,6.7,0,0,1-4.951-1.752h-1.2q0,1.949-3.9,6.051A17.913,17.913,0,0,0,824.183,749q8.2,0,12.231-4.529a14.683,14.683,0,0,0,4.03-9.982v-.847Q840.444,725.028,832.089,719.374Zm27.658-8.284a15.231,15.231,0,0,1-3.735.524c-2.525,0-4.213-.551-5.043-1.648h-1.3v8.509l4.5.6a13.208,13.208,0,0,0,5.471-1.179,17.005,17.005,0,0,0,3.455-1.849,8.619,8.619,0,0,0,1.227-1.171v-5.211l-1.245.5C862.243,710.433,861.133,710.741,859.747,711.09Zm0,26.651a16.032,16.032,0,0,1-3.735.5c-2.525,0-4.213-.585-5.043-1.754h-1.3V744.9l.593.249a13.272,13.272,0,0,0,1.755.4,12.814,12.814,0,0,0,2.157.2,13.331,13.331,0,0,0,5.471-1.175,17.758,17.758,0,0,0,3.455-1.855,8.326,8.326,0,0,0,1.227-1.175v-5.254l-1.245.55C862.243,737.1,861.133,737.406,859.747,737.742Zm43.37-34.329a3.95,3.95,0,0,1,1.205,3.3v28.773q0,2.353-2.6,4.109t-7.6,1.751h-.553c-3.339,0-5.867-.582-7.6-1.751s-2.6-2.54-2.6-4.109V703.412a19.3,19.3,0,0,1-5.76.7,29.689,29.689,0,0,1-5.353-.4l-.3,1.253a7.047,7.047,0,0,1,2.551,5.905v24.617a12.408,12.408,0,0,0,4.4,9.535Q883.308,749,893.563,749h.553q10.214,0,14.611-3.979a12.389,12.389,0,0,0,4.4-9.535V706.711c.033-1.667.382-2.768,1.059-3.3a36.686,36.686,0,0,1-5.764.4A49.312,49.312,0,0,1,903.117,703.412Zm48.657,15.962a39.489,39.489,0,0,0-19.711-6.459v-.2l1.243-.7a24.563,24.563,0,0,1,3.929-1.277,21.175,21.175,0,0,1,5.283-.675q9.555,0,13.657,2.85h1.612V706.56l-1.612-.894a22.426,22.426,0,0,0-5.457-2.029,31.274,31.274,0,0,0-8.2-1.027,23.807,23.807,0,0,0-6.937.977,19.758,19.758,0,0,0-5.68,2.7c-1.635,1.151-2.951,2.169-3.973,3.052a29.241,29.241,0,0,0-3.083,3.181c-1.027,1.237-1.581,1.884-1.648,1.953l1.352,3.3a103.9,103.9,0,0,1,11.367,2.129,55.729,55.729,0,0,1,8.949,3.077,16.736,16.736,0,0,1,6.309,4.5,9.534,9.534,0,0,1,2.148,6.161v.847a7.637,7.637,0,0,1-1.928,5.305,7.023,7.023,0,0,1-5.526,2.155,6.688,6.688,0,0,1-4.949-1.752h-1.2q0,1.949-3.905,6.051A17.947,17.947,0,0,0,943.867,749c5.469,0,9.556-1.505,12.229-4.529a14.658,14.658,0,0,0,4.03-9.982v-.847Q960.126,725.028,951.774,719.374Zm-22.437-23.2a81.159,81.159,0,0,1,9.875-.575q11.62,0,18.871,2.252V691.4a18.882,18.882,0,0,1-2.857-.85,56.989,56.989,0,0,0-6.909-1.727,48.111,48.111,0,0,0-18.292,0,54.676,54.676,0,0,0-6.827,1.727,19.6,19.6,0,0,1-2.75.85v6.455l2.153-.6A66.1,66.1,0,0,1,929.337,696.177Zm70.141,7.235a3.969,3.969,0,0,1,1.193,3.3v28.773c0,1.569-.858,2.941-2.6,4.109s-4.271,1.751-7.609,1.751h-.541c-3.347,0-5.878-.582-7.619-1.751s-2.6-2.54-2.6-4.109V703.412a19.167,19.167,0,0,1-5.751.7,29.908,29.908,0,0,1-5.359-.4l-.3,1.253a7.056,7.056,0,0,1,2.553,5.905v24.617a12.423,12.423,0,0,0,4.407,9.535Q979.65,749,989.925,749h.541q10.206,0,14.616-3.979a12.424,12.424,0,0,0,4.406-9.535V706.711q.039-2.5,1.041-3.3a36.426,36.426,0,0,1-5.749.4A49,49,0,0,1,999.478,703.412Zm45.643,11.685a20.466,20.466,0,0,0-.3-2.53,10.085,10.085,0,0,0-.862-3.031,18.572,18.572,0,0,0-1.864-2.749,9.371,9.371,0,0,0-3.023-2.549,21.111,21.111,0,0,0-4.6-1.654,26.339,26.339,0,0,0-6.465-.724,29.615,29.615,0,0,0-10.255,1.951v7.056h1.059q3.44-2.857,9.2-2.853a11.9,11.9,0,0,1,4.659.775,4.607,4.607,0,0,1,2.517,2.35,11.3,11.3,0,0,1,.939,2.754,19.753,19.753,0,0,1,.2,3.226v28.427a3.74,3.74,0,0,1-1.254,3.251,49.377,49.377,0,0,1,5.362-.4,36.661,36.661,0,0,1,5.755.4c-.709-.531-1.057-1.614-1.057-3.251Zm49.9,30.149V718.571a21.526,21.526,0,0,0-.253-3.38,16.81,16.81,0,0,0-1.4-4.149,13.4,13.4,0,0,0-3.073-4.307,16.965,16.965,0,0,0-5.775-3.128,27.583,27.583,0,0,0-9.065-1.348,28.623,28.623,0,0,0-14.669,4v9.257h1.4a11.634,11.634,0,0,1,4.425-3.8,18,18,0,0,1,8.633-1.751q10.967,0,10.959,8.6v6.459q-.855-1.656-4.374-3.431a18.914,18.914,0,0,0-8.533-1.774q-8.2,0-12.841,4.2a14.111,14.111,0,0,0-4.623,10.957,13.4,13.4,0,0,0,3.648,9.787q3.653,3.724,10.017,3.725h3.594a27.881,27.881,0,0,1,.706-7.353h-.955a8.062,8.062,0,0,1-2.753.6,5.653,5.653,0,0,1-3.579-1.527c-1.213-1.019-1.824-2.659-1.824-4.931a6.84,6.84,0,0,1,2.651-5.8,11.652,11.652,0,0,1,7.163-2,12.448,12.448,0,0,1,8.429,2.832,9.8,9.8,0,0,1,3.274,7.833v7.1a3.768,3.768,0,0,1-1.245,3.252,48.709,48.709,0,0,1,5.354-.4,35.621,35.621,0,0,1,5.7.4Q1095.027,747.7,1095.025,745.246Z" transform="translate(-548.992 -687.945)" fill="url(#linear-gradient)"/>
        </g>
      </g>
    </g>
    <path id="Path_62" data-name="Path 62" d="M703.47,894.246a270.167,270.167,0,0,1,33.837,1.781,198.961,198.961,0,0,1,29.714,5.725,130.356,130.356,0,0,1,24.593,9.411,79.591,79.591,0,0,1,18.541,12.853c.494.466.954.937,1.415,1.4q2.82,2.868,5.629,5.737,2.808-2.869,5.623-5.737c.463-.468.92-.939,1.407-1.4a79.66,79.66,0,0,1,18.547-12.862,130.368,130.368,0,0,1,24.589-9.411,199.2,199.2,0,0,1,29.72-5.725,269.529,269.529,0,0,1,33.836-1.781c1.074.009,2.131.038,3.193.067l1.935.048h.17c1.367-.014,2.722-.014,4.083,0a244.464,244.464,0,0,1,44.579,4.571c7.121,1.39,14.234,3.033,21.1,4.627,9.8,2.274,19.925,4.633,30.562,6.429a216.252,216.252,0,0,0,32.065,3.143,148.713,148.713,0,0,0,24.667-1.531c2.771-.422,5.457-.927,8.049-1.5-9.722,5.13-22.278,9.051-36.211,11.045a139.849,139.849,0,0,1-16.385,1.357c-3.149-.4-6.323-.869-9.435-1.4-10.02-1.7-19.823-3.991-29.317-6.2-7-1.631-14.247-3.312-21.667-4.769a263.62,263.62,0,0,0-48.255-4.945c-1.413-.013-2.834-.013-4.253,0-.454-.013-.909-.022-1.363-.035-1.24-.033-2.479-.067-3.735-.078a288.931,288.931,0,0,0-36.411,1.931,217.611,217.611,0,0,0-32.541,6.3,145.462,145.462,0,0,0-27.491,10.577A94.844,94.844,0,0,0,817.2,935a94.764,94.764,0,0,0-17.069-11.122,145.328,145.328,0,0,0-27.5-10.575,217.283,217.283,0,0,0-32.531-6.3,288.98,288.98,0,0,0-36.41-1.931c-1.26.011-2.5.045-3.739.078-.453.013-.908.022-1.363.035q-2.131-.019-4.256,0a263.484,263.484,0,0,0-48.245,4.945c-7.423,1.457-14.675,3.138-21.675,4.769-9.493,2.207-19.3,4.5-29.311,6.2-3.12.529-6.289,1-9.441,1.4a140.359,140.359,0,0,1-16.381-1.354c-13.925-1.994-26.48-5.913-36.2-11.043,2.583.57,5.262,1.071,8.02,1.493a148.953,148.953,0,0,0,24.677,1.531,216.133,216.133,0,0,0,32.065-3.143c10.639-1.793,20.76-4.155,30.559-6.429,6.873-1.593,13.985-3.237,21.112-4.63a244.855,244.855,0,0,1,44.574-4.567q2.038-.017,4.083,0h.17l1.941-.048C701.337,894.284,702.394,894.256,703.47,894.246Z" transform="translate(-533.083 -607.458)" fill="url(#radial-gradient)"/>
  </g>
  <g id="Group_7" data-name="Group 7" transform="translate(0 367.135)">
    <path id="Path_63" data-name="Path 63" d="M527.7,1068.335a7.415,7.415,0,0,1-.679,3.13,8.223,8.223,0,0,1-1.839,2.573,8.86,8.86,0,0,1-2.7,1.737,8.5,8.5,0,0,1-3.288.641,8.782,8.782,0,0,1-4.719-1.337,8.7,8.7,0,0,1-1.793-1.5,9,9,0,0,1-1.328-1.885l-10.124-20.619,6.855-2.433,9.957,20.229a1.251,1.251,0,0,0,1.152.613,1.172,1.172,0,0,0,.864-.343,1.107,1.107,0,0,0,.343-.808v-19.783h-4.644v-6.836H527.7Z" transform="translate(-501.231 -1023.753)" fill="#ae0721"/>
    <path id="Path_64" data-name="Path 64" d="M570.548,1075.719h-7.375v-21.381q0-6.613-6.39-6.613a8.607,8.607,0,0,0-1.561.139,6.871,6.871,0,0,0-1.57.5,9.292,9.292,0,0,0-1.7,1.022,19.974,19.974,0,0,0-1.951,1.681l-4.941-4.941a22.575,22.575,0,0,1,3.047-2.573,14.772,14.772,0,0,1,2.87-1.561,12.432,12.432,0,0,1,2.861-.771,21.518,21.518,0,0,1,3.019-.2,16.059,16.059,0,0,1,6.083,1.049,12.233,12.233,0,0,1,4.263,2.805,11.242,11.242,0,0,1,2.517,4.077,14.36,14.36,0,0,1,.827,4.848Z" transform="translate(-515.841 -1023.52)" fill="#ae0721"/>
    <path id="Path_65" data-name="Path 65" d="M614.574,1076.026v-3.957a12.681,12.681,0,0,1-1.988,1.959,11.808,11.808,0,0,1-2.257,1.4,12.04,12.04,0,0,1-2.415.845,10.846,10.846,0,0,1-2.461.288,14.448,14.448,0,0,1-6.511-1.561,13.431,13.431,0,0,1-2.768-1.876,12.148,12.148,0,0,1-3.659-5.693,12.7,12.7,0,0,1-.529-3.725v-21.994h7.375v21.994a6.025,6.025,0,0,0,.511,2.554,5.406,5.406,0,0,0,1.384,1.857,5.846,5.846,0,0,0,2.053,1.133,8.137,8.137,0,0,0,2.517.381,6.3,6.3,0,0,0,2.127-.381,8.879,8.879,0,0,0,2.034-1.04,10.951,10.951,0,0,0,1.811-1.561,11.15,11.15,0,0,0,1.458-1.932,10.16,10.16,0,0,0,.966-2.155,7.383,7.383,0,0,0,.353-2.22v-18.631h7.375v34.31Z" transform="translate(-531.482 -1023.753)" fill="#ae0721"/>
    <path id="Path_66" data-name="Path 66" d="M675.893,1075.682h-7.375v-19.561a8.194,8.194,0,0,0-.678-3.353,7.757,7.757,0,0,0-1.913-2.647,8.783,8.783,0,0,0-2.991-1.737,11.707,11.707,0,0,0-3.929-.623,9.445,9.445,0,0,0-6.929,2.88l1.821,1.987v23.053h-7.375v-20.694l-3.66-3.882a24.761,24.761,0,0,1,3.149-4.254,19.711,19.711,0,0,1,3.808-3.214,17.515,17.515,0,0,1,4.365-2.025,16.414,16.414,0,0,1,4.821-.706,20.479,20.479,0,0,1,4.635.511,17.854,17.854,0,0,1,4.077,1.468,15.458,15.458,0,0,1,3.381,2.322,14.745,14.745,0,0,1,2.573,3.056,14.332,14.332,0,0,1,1.644,3.669,14.913,14.913,0,0,1,.576,4.189Z" transform="translate(-548.442 -1023.483)" fill="#ae0721"/>
    <path id="Path_67" data-name="Path 67" d="M722.018,1075.719h-7.375v-21.381q0-6.613-6.39-6.613a8.607,8.607,0,0,0-1.561.139,6.869,6.869,0,0,0-1.57.5,9.269,9.269,0,0,0-1.7,1.022,19.981,19.981,0,0,0-1.951,1.681l-4.941-4.941a22.575,22.575,0,0,1,3.047-2.573,14.772,14.772,0,0,1,2.87-1.561,12.432,12.432,0,0,1,2.861-.771,21.51,21.51,0,0,1,3.019-.2,16.061,16.061,0,0,1,6.083,1.049,12.233,12.233,0,0,1,4.263,2.805,11.243,11.243,0,0,1,2.517,4.077,14.36,14.36,0,0,1,.827,4.848Z" transform="translate(-566.331 -1023.52)" fill="#ae0721"/>
    <path id="Path_68" data-name="Path 68" d="M766.767,1047.92a8.093,8.093,0,0,1,1.3,2.434,9.043,9.043,0,0,1,.445,2.879v9.9a10.75,10.75,0,0,1-.975,4.551,11.8,11.8,0,0,1-2.657,3.7,12.53,12.53,0,0,1-3.947,2.489,12.838,12.838,0,0,1-4.83.91,12.756,12.756,0,0,1-8.731-3.4,11.831,11.831,0,0,1-2.675-3.7,10.658,10.658,0,0,1-.985-4.551,13.414,13.414,0,0,1,.26-2.8,8.646,8.646,0,0,1,.761-2.183,8.287,8.287,0,0,1,1.207-1.746,11.945,11.945,0,0,1,1.589-1.458,23.378,23.378,0,0,1,1.932-1.329q1.049-.65,2.239-1.374a10.61,10.61,0,0,0,.919-.632,3.17,3.17,0,0,0,.613-.613,2.067,2.067,0,0,0,.335-.705,3.709,3.709,0,0,0,.1-.929,3.116,3.116,0,0,0-.947-2.425,3.743,3.743,0,0,0-2.619-.863,2.88,2.88,0,0,0-.929.157,3.166,3.166,0,0,0-1,.623,7.876,7.876,0,0,0-1.161,1.319,22.937,22.937,0,0,0-1.4,2.248l-6.167-3.883a19.885,19.885,0,0,1,2.341-3.279,12.944,12.944,0,0,1,2.573-2.238,10.426,10.426,0,0,1,2.805-1.291,10.9,10.9,0,0,1,3.019-.418,11.044,11.044,0,0,1,3.009.409,11.158,11.158,0,0,1,2.694,1.151,10.641,10.641,0,0,1,2.239,1.783,10.026,10.026,0,0,1,1.643,2.285l7.839-8.137,5.239,4.793Zm-13.17,11.257q-.576.372-1.05.743a4.5,4.5,0,0,0-.817.827,3.462,3.462,0,0,0-.529,1.031,4.426,4.426,0,0,0-.186,1.356,4.334,4.334,0,0,0,.4,1.857,4.735,4.735,0,0,0,1.1,1.5,5.134,5.134,0,0,0,1.616,1,5.346,5.346,0,0,0,1.978.362,5.427,5.427,0,0,0,1.988-.362,5.126,5.126,0,0,0,1.625-1,4.744,4.744,0,0,0,1.1-1.5,4.334,4.334,0,0,0,.4-1.857v-9.9a4.511,4.511,0,0,0-.084-.873,3.179,3.179,0,0,0-.381-.947,7.4,7.4,0,0,1-.919,2.629,8.647,8.647,0,0,1-1.607,1.941,15.492,15.492,0,0,1-2.127,1.6Q754.915,1058.322,753.6,1059.177Z" transform="translate(-580.635 -1022.118)" fill="#ae0721"/>
    <path id="Path_69" data-name="Path 69" d="M813.329,1075.719h-7.375v-21.381q0-6.613-6.39-6.613a8.612,8.612,0,0,0-1.561.139,6.866,6.866,0,0,0-1.569.5,9.271,9.271,0,0,0-1.7,1.022,20.053,20.053,0,0,0-1.951,1.681l-4.941-4.941a22.528,22.528,0,0,1,3.046-2.573,14.769,14.769,0,0,1,2.87-1.561,12.438,12.438,0,0,1,2.861-.771,21.522,21.522,0,0,1,3.019-.2,16.063,16.063,0,0,1,6.083,1.049,12.241,12.241,0,0,1,4.263,2.805,11.241,11.241,0,0,1,2.517,4.077,14.343,14.343,0,0,1,.827,4.848Z" transform="translate(-596.768 -1023.52)" fill="#ae0721"/>
    <path id="Path_70" data-name="Path 70" d="M858.6,1075.794v-21.159a5.823,5.823,0,0,0-.771-2.991,6.954,6.954,0,0,0-2.025-2.2,8.755,8.755,0,0,0-2.861-1.3,9.893,9.893,0,0,0-3.279-.288,9.784,9.784,0,0,0-3.279.854,8.626,8.626,0,0,0-2.861,2.109,10.523,10.523,0,0,0-2.025,3.483,16.164,16.164,0,0,0-.213,9.139,10.013,10.013,0,0,0,1.533,3.139,6.711,6.711,0,0,0,2.313,1.987,6.239,6.239,0,0,0,2.9.687,4.53,4.53,0,0,0,.827-.074,3.2,3.2,0,0,0,.817-.279,4.847,4.847,0,0,0,.892-.585,11.666,11.666,0,0,0,1.049-.975l4.7,4.793a18.179,18.179,0,0,1-2.155,1.932,11.375,11.375,0,0,1-2.007,1.217,8.06,8.06,0,0,1-2,.631,12.416,12.416,0,0,1-2.127.176,14.653,14.653,0,0,1-6.446-1.337,13.182,13.182,0,0,1-4.616-3.641,15.8,15.8,0,0,1-2.777-5.35,23.6,23.6,0,0,1-.233-12.251,17.961,17.961,0,0,1,1.913-4.616,15.112,15.112,0,0,1,2.879-3.511,16.264,16.264,0,0,1,3.6-2.452,17.733,17.733,0,0,1,4.068-1.439,19.539,19.539,0,0,1,4.263-.474,18.159,18.159,0,0,1,3.78.4,17.231,17.231,0,0,1,3.595,1.18,15.648,15.648,0,0,1,3.177,1.931,12.853,12.853,0,0,1,2.535,2.647,12.347,12.347,0,0,1,2.295,7.31v21.307Z" transform="translate(-611.907 -1023.52)" fill="#ae0721"/>
    <path id="Path_71" data-name="Path 71" d="M921.1,1054.84a12.835,12.835,0,0,1-.539,3.733,13.633,13.633,0,0,1-3.864,6.149,15.08,15.08,0,0,1-3.037,2.164,15.635,15.635,0,0,1-3.576,1.393,15.953,15.953,0,0,1-11.5-1.393,14.73,14.73,0,0,1-3.037-2.164,14.17,14.17,0,0,1-2.35-2.814,13.4,13.4,0,0,1-1.523-3.344,12.857,12.857,0,0,1-.539-3.724v-20.768h7.375v20.768a6.477,6.477,0,0,0,.576,2.7,6.958,6.958,0,0,0,1.6,2.229,7.628,7.628,0,0,0,2.415,1.513,8.07,8.07,0,0,0,3.028.557,7.887,7.887,0,0,0,5.359-2.071,7.256,7.256,0,0,0,1.635-2.229,6.224,6.224,0,0,0,.6-2.7v-36.057H921.1Z" transform="translate(-631.199 -1016.108)" fill="#ae0721"/>
    <path id="Path_72" data-name="Path 72" d="M971.476,1063.7a12.32,12.32,0,0,1-.548,3.771,11.652,11.652,0,0,1-1.5,3.093,11.455,11.455,0,0,1-2.248,2.424,13.312,13.312,0,0,1-2.777,1.727,15.2,15.2,0,0,1-6.316,1.393,16.019,16.019,0,0,1-3.055-.3,13.327,13.327,0,0,1-2.954-.938,13.876,13.876,0,0,1-2.7-1.616,11.773,11.773,0,0,1-2.3-2.341,14.255,14.255,0,0,1-1.747-3.121,15.948,15.948,0,0,1-1.021-3.947l6.855-2.285a15,15,0,0,0,.947,3.771,7.184,7.184,0,0,0,1.523,2.359,4.917,4.917,0,0,0,2.005,1.217,8.027,8.027,0,0,0,2.379.343,7.759,7.759,0,0,0,2.526-.4,6.266,6.266,0,0,0,2.034-1.124,5.09,5.09,0,0,0,1.347-1.745,5.283,5.283,0,0,0,.483-2.285,2.537,2.537,0,0,0-.91-1.951,7.561,7.561,0,0,0-2.973-1.393q-1.337-.371-3.009-.715t-3.4-.789a32.376,32.376,0,0,1-3.371-1.069,12.517,12.517,0,0,1-2.917-1.541,7.451,7.451,0,0,1-2.053-2.22,5.919,5.919,0,0,1-.78-3.1,9.14,9.14,0,0,1,1.969-5.8,9.964,9.964,0,0,1,2.136-2.007,13.523,13.523,0,0,1,2.61-1.421,14.778,14.778,0,0,1,2.861-.845,15.643,15.643,0,0,1,2.907-.279,18.492,18.492,0,0,1,2.647.2,14.516,14.516,0,0,1,5.229,1.829,12.694,12.694,0,0,1,2.35,1.774,14.139,14.139,0,0,1,2.043,2.471,17.1,17.1,0,0,1,1.644,3.241l-6.613,2.434a11.807,11.807,0,0,0-1.422-2.508,6.946,6.946,0,0,0-1.672-1.6,5.936,5.936,0,0,0-1.931-.836,9.653,9.653,0,0,0-2.2-.241,8.477,8.477,0,0,0-2.405.306,5.643,5.643,0,0,0-1.709.8,3.416,3.416,0,0,0-1.021,1.125,2.65,2.65,0,0,0-.344,1.281.967.967,0,0,0,.242.687,1.885,1.885,0,0,0,.659.437,5.914,5.914,0,0,0,.985.306q.567.131,1.235.316,1.6.446,3.428.855t3.641.929a28.661,28.661,0,0,1,3.483,1.245,11.6,11.6,0,0,1,2.944,1.811,8.263,8.263,0,0,1,2.035,2.61A8.111,8.111,0,0,1,971.476,1063.7Z" transform="translate(-648.92 -1023.372)" fill="#ae0721"/>
    <path id="Path_73" data-name="Path 73" d="M999.387,1057.5a6.571,6.571,0,0,1-2.555-.492,6.414,6.414,0,0,1-2.043-1.337,6.27,6.27,0,0,1-1.365-1.988,5.946,5.946,0,0,1-.5-2.424v-3.715H1000v3.269h6.613v6.687Zm0,17.351a6.558,6.558,0,0,1-2.555-.493,6.41,6.41,0,0,1-2.043-1.337,6.261,6.261,0,0,1-1.365-1.988,5.946,5.946,0,0,1-.5-2.424v-3.641H1000v3.195h6.613v6.688Z" transform="translate(-665.128 -1025.694)" fill="#ae0721"/>
    <path id="Path_74" data-name="Path 74" d="M1048.168,1054.561a11.814,11.814,0,0,1-.911,4.644l-6.464,16.514h-6.855l-7.375-20.155h7.691l3.2,8.823,2.879-7.468a6.649,6.649,0,0,0,.465-2.359,5.868,5.868,0,0,0-.567-2.536,6.9,6.9,0,0,0-1.542-2.108,7.33,7.33,0,0,0-2.295-1.44,7.511,7.511,0,0,0-2.823-.529,6.5,6.5,0,0,0-3.009.65,6.574,6.574,0,0,0-2.127,1.719,8.592,8.592,0,0,0-1.365,2.415,14.342,14.342,0,0,0-.724,2.74h-7.393a18.017,18.017,0,0,1,1.588-6.1,15.064,15.064,0,0,1,3.233-4.542,13.578,13.578,0,0,1,4.477-2.833,14.588,14.588,0,0,1,5.322-.975,15.658,15.658,0,0,1,7.4,1.839,14.164,14.164,0,0,1,2.953,2.109,13.283,13.283,0,0,1,3.725,5.981A12.536,12.536,0,0,1,1048.168,1054.561Z" transform="translate(-673.803 -1023.52)" fill="#ae0721"/>
    <path id="Path_75" data-name="Path 75" d="M1060.911,1021.551a6.6,6.6,0,0,1-.529,2.629,6.749,6.749,0,0,1-3.6,3.6,6.79,6.79,0,0,1-5.257,0,6.819,6.819,0,0,1-2.155-1.449,6.956,6.956,0,0,1-1.458-2.155,6.683,6.683,0,0,1,0-5.257,6.868,6.868,0,0,1,3.613-3.613,6.681,6.681,0,0,1,5.257,0,6.93,6.93,0,0,1,2.155,1.458,6.818,6.818,0,0,1,1.449,2.155A6.6,6.6,0,0,1,1060.911,1021.551Zm-4.792.075a2.2,2.2,0,0,0-.149-.809,2.026,2.026,0,0,0-.409-.659,1.841,1.841,0,0,0-.623-.437,1.949,1.949,0,0,0-.789-.158,2.086,2.086,0,0,0-.808.158,1.987,1.987,0,0,0-1.1,1.1,2.092,2.092,0,0,0-.159.809,1.953,1.953,0,0,0,.159.789,1.842,1.842,0,0,0,.437.622,2.019,2.019,0,0,0,.659.409,2.2,2.2,0,0,0,.808.149,1.908,1.908,0,0,0,1.969-1.969Z" transform="translate(-683.277 -1014.771)" fill="#ae0721"/>
    <path id="Path_76" data-name="Path 76" d="M1092.389,1075.719h-7.375v-21.381q0-6.613-6.391-6.613a8.62,8.62,0,0,0-1.561.139,6.868,6.868,0,0,0-1.569.5,9.25,9.25,0,0,0-1.7,1.022,19.981,19.981,0,0,0-1.951,1.681l-4.941-4.941a22.53,22.53,0,0,1,3.047-2.573,14.751,14.751,0,0,1,2.87-1.561,12.44,12.44,0,0,1,2.861-.771,21.509,21.509,0,0,1,3.018-.2,16.062,16.062,0,0,1,6.084,1.049,12.239,12.239,0,0,1,4.263,2.805,11.26,11.26,0,0,1,2.517,4.077,14.36,14.36,0,0,1,.827,4.848Z" transform="translate(-689.788 -1023.52)" fill="#ae0721"/>
    <path id="Path_77" data-name="Path 77" d="M1143.788,1054.84a12.855,12.855,0,0,1-.539,3.733,13.65,13.65,0,0,1-3.864,6.149,15.067,15.067,0,0,1-3.037,2.164,15.623,15.623,0,0,1-3.576,1.393,15.949,15.949,0,0,1-11.5-1.393,14.7,14.7,0,0,1-3.037-2.164,14.129,14.129,0,0,1-2.35-2.814,13.379,13.379,0,0,1-1.523-3.344,12.832,12.832,0,0,1-.539-3.724v-20.768h7.375v20.768a6.479,6.479,0,0,0,.576,2.7,6.947,6.947,0,0,0,1.6,2.229,7.634,7.634,0,0,0,2.415,1.513,8.072,8.072,0,0,0,3.028.557,7.887,7.887,0,0,0,5.359-2.071,7.27,7.27,0,0,0,1.635-2.229,6.234,6.234,0,0,0,.6-2.7v-36.057h7.375Z" transform="translate(-705.429 -1016.108)" fill="#ae0721"/>
    <path id="Path_78" data-name="Path 78" d="M1108.336,1029.576v-6.465h16.885v-4.329h6.539v10.793Z" transform="translate(-703.599 -1016.108)" fill="#ae0721"/>
    <path id="Path_79" data-name="Path 79" d="M1230.882,1057.542a18.869,18.869,0,0,1-1.282,7.115,15.49,15.49,0,0,1-3.594,5.415,15.851,15.851,0,0,1-5.527,3.446,20.023,20.023,0,0,1-7.1,1.207,19.068,19.068,0,0,1-7.263-1.319,16.272,16.272,0,0,1-5.507-3.622,15.969,15.969,0,0,1-3.5-5.387,17.786,17.786,0,0,1-1.226-6.632v-20.842h6.613v20.768a12.26,12.26,0,0,0,.707,4.226,9.2,9.2,0,0,0,2.08,3.344,9.61,9.61,0,0,0,3.409,2.2,12.766,12.766,0,0,0,4.691.8,13.314,13.314,0,0,0,4.523-.725,9.012,9.012,0,0,0,5.582-5.461,12.6,12.6,0,0,0,.761-4.533q0-.464.01-1.254t-.037-1.7q-.047-.91-.168-1.849a9.179,9.179,0,0,0-.371-1.7,3.6,3.6,0,0,0-.669-1.244,1.328,1.328,0,0,0-1.049-.483,1.824,1.824,0,0,0-1.375.538,1.8,1.8,0,0,0-.52,1.3v3.492h-6.316v-3.492a1.744,1.744,0,0,0-.557-1.263,2.087,2.087,0,0,0-.7-.418,2.7,2.7,0,0,0-.957-.157,1.973,1.973,0,0,0-1.542.64,2.48,2.48,0,0,0-.575,1.719,4.212,4.212,0,0,0,.046.548,2.209,2.209,0,0,0,.335.817,5.637,5.637,0,0,0,.9,1.068,10.562,10.562,0,0,0,1.746,1.3l-4.4,4.347a15.98,15.98,0,0,1-2.471-2.043,10.8,10.8,0,0,1-1.57-2.025,7.419,7.419,0,0,1-.826-2.007,8.491,8.491,0,0,1-.242-2.006,9.24,9.24,0,0,1,.567-3.139,8.962,8.962,0,0,1,1.653-2.842,8.373,8.373,0,0,1,2.694-2.053,8.877,8.877,0,0,1,6.492-.325,7.82,7.82,0,0,1,2.452,1.449,8.308,8.308,0,0,1,2.563-1.449,8.949,8.949,0,0,1,2.917-.464,7.425,7.425,0,0,1,3.408.724,7.126,7.126,0,0,1,2.379,1.932,9.715,9.715,0,0,1,1.513,2.749,19.069,19.069,0,0,1,.845,3.177,26.53,26.53,0,0,1,.371,3.223Q1230.882,1056.243,1230.882,1057.542Z" transform="translate(-732.782 -1022.155)" fill="#ae0721"/>
    <path id="Path_80" data-name="Path 80" d="M1286.314,1046.545a6.08,6.08,0,0,1-1.867,1.561,5.44,5.44,0,0,1-2.7.65h-12.093a9.737,9.737,0,0,0-3.8.743,9.948,9.948,0,0,0-3.1,2.025,9.435,9.435,0,0,0-2.09,3,9.189,9.189,0,0,0,0,7.328,9.613,9.613,0,0,0,2.09,3.028,10.044,10.044,0,0,0,3.1,2.062,9.526,9.526,0,0,0,3.8.762,9.745,9.745,0,0,0,2.34-.279,13.129,13.129,0,0,0,2.285-.8l-3.12-3.121a14.96,14.96,0,0,1-1.6-1.932,6.329,6.329,0,0,1-.994-2.183,4.723,4.723,0,0,1,.055-2.35,5.608,5.608,0,0,1,1.551-2.433l2.9-2.972,4.792,4.718-2.285,2.211,12.093,12.019-4.644,4.569-3.864-3.733a18.773,18.773,0,0,1-4.5,2.071,16.8,16.8,0,0,1-5.006.753,16.594,16.594,0,0,1-4.356-.567,16.364,16.364,0,0,1-3.911-1.617,16.6,16.6,0,0,1-3.316-2.507,15.707,15.707,0,0,1-2.554-3.241,16.131,16.131,0,0,1-1.644-3.836,15.526,15.526,0,0,1-.585-4.282,15.291,15.291,0,0,1,.855-5.118,16.023,16.023,0,0,1,5.945-7.867,16.505,16.505,0,0,1,4.532-2.248,1.463,1.463,0,0,1-.065-.39c-.006-.149-.009-.321-.009-.52a7.115,7.115,0,0,1,.575-2.842,7.269,7.269,0,0,1,3.883-3.883,7.3,7.3,0,0,1,5.685,0,7.469,7.469,0,0,1,2.331,1.561,7.3,7.3,0,0,1,1.571,2.322,7.117,7.117,0,0,1,.575,2.842v.149h2.192l4.719-6.149,5.48,3.715Zm-11.945-4.57a2.567,2.567,0,0,0-.195-1,2.461,2.461,0,0,0-.53-.8,2.339,2.339,0,0,0-.8-.52,2.678,2.678,0,0,0-1-.186,2.6,2.6,0,0,0-.994.186,2.356,2.356,0,0,0-.789.52,2.463,2.463,0,0,0-.53.8,2.682,2.682,0,0,0,0,2.006,2.456,2.456,0,0,0,.53.8,2.366,2.366,0,0,0,.789.521,2.616,2.616,0,0,0,.994.185,2.69,2.69,0,0,0,1-.185,2.35,2.35,0,0,0,.8-.521,2.454,2.454,0,0,0,.53-.8A2.566,2.566,0,0,0,1274.369,1041.975Z" transform="translate(-751.916 -1021.43)" fill="#ae0721"/>
    <path id="Path_81" data-name="Path 81" d="M1340.973,1059.744a15.445,15.445,0,0,1-.585,4.263,16.243,16.243,0,0,1-1.653,3.855,16.724,16.724,0,0,1-5.87,5.861,16.347,16.347,0,0,1-3.882,1.653,16.3,16.3,0,0,1-8.415.065,15.894,15.894,0,0,1-6.6-3.567,16.686,16.686,0,0,1-2.359-2.619,9.526,9.526,0,0,1-1.487-2.74,5.793,5.793,0,0,1-.269-2.359,5.379,5.379,0,0,1,.687-2.1,12.353,12.353,0,0,1,1.412-1.969,26.355,26.355,0,0,1,1.885-1.951q1.041-.975,2.1-2.034l4.57,4.551q-.223.223-.65.575t-.911.771q-.483.418-.957.873a6.586,6.586,0,0,0-.8.911,2.77,2.77,0,0,0-.437.863.823.823,0,0,0,.112.725,8.249,8.249,0,0,0,1.43,1.626,9.762,9.762,0,0,0,4.013,2.108,9.481,9.481,0,0,0,2.377.3,9.16,9.16,0,0,0,3.725-.771,10.093,10.093,0,0,0,3.084-2.089,9.912,9.912,0,0,0,2.1-3.075,9.375,9.375,0,0,0,.436-6.2,9.474,9.474,0,0,0-.957-2.257,9.693,9.693,0,0,0-1.5-1.941,9.817,9.817,0,0,0-2-1.532l-6.781,6.761L1309.32,1044.9l4.718-4.551,8.749,8.749,5.183-5.183a19.582,19.582,0,0,1,5.434,2.387,17.268,17.268,0,0,1,4.087,3.622,15.593,15.593,0,0,1,2.582,4.579A15.392,15.392,0,0,1,1340.973,1059.744Z" transform="translate(-770.594 -1023.297)" fill="#ae0721"/>
    <path id="Path_82" data-name="Path 82" d="M1398.1,1057.542a18.869,18.869,0,0,1-1.282,7.115,15.49,15.49,0,0,1-3.594,5.415,15.851,15.851,0,0,1-5.527,3.446,20.027,20.027,0,0,1-7.1,1.207,19.067,19.067,0,0,1-7.263-1.319,16.282,16.282,0,0,1-5.508-3.622,15.988,15.988,0,0,1-3.5-5.387,17.8,17.8,0,0,1-1.225-6.632v-20.842h6.613v20.768a12.274,12.274,0,0,0,.706,4.226,9.2,9.2,0,0,0,2.081,3.344,9.6,9.6,0,0,0,3.409,2.2,12.764,12.764,0,0,0,4.69.8,13.312,13.312,0,0,0,4.523-.725,9.011,9.011,0,0,0,5.583-5.461,12.612,12.612,0,0,0,.761-4.533q0-.464.01-1.254t-.037-1.7q-.048-.91-.168-1.849a9.229,9.229,0,0,0-.371-1.7,3.6,3.6,0,0,0-.669-1.244,1.329,1.329,0,0,0-1.049-.483,1.824,1.824,0,0,0-1.375.538,1.8,1.8,0,0,0-.52,1.3v3.492h-6.316v-3.492a1.744,1.744,0,0,0-.557-1.263,2.1,2.1,0,0,0-.7-.418,2.7,2.7,0,0,0-.957-.157,1.972,1.972,0,0,0-1.542.64,2.477,2.477,0,0,0-.575,1.719,4.212,4.212,0,0,0,.046.548,2.209,2.209,0,0,0,.335.817,5.637,5.637,0,0,0,.9,1.068,10.536,10.536,0,0,0,1.746,1.3l-4.4,4.347a16.007,16.007,0,0,1-2.47-2.043,10.8,10.8,0,0,1-1.57-2.025,7.416,7.416,0,0,1-.826-2.007,8.491,8.491,0,0,1-.242-2.006,9.24,9.24,0,0,1,.567-3.139,8.948,8.948,0,0,1,1.653-2.842,8.377,8.377,0,0,1,2.693-2.053,8.879,8.879,0,0,1,6.493-.325,7.828,7.828,0,0,1,2.452,1.449,8.312,8.312,0,0,1,2.563-1.449,8.955,8.955,0,0,1,2.917-.464,7.427,7.427,0,0,1,3.408.724,7.126,7.126,0,0,1,2.379,1.932,9.715,9.715,0,0,1,1.513,2.749,19.069,19.069,0,0,1,.845,3.177,26.53,26.53,0,0,1,.371,3.223Q1398.1,1056.243,1398.1,1057.542Z" transform="translate(-788.52 -1022.155)" fill="#ae0721"/>
  </g>
</svg>
